<svg width="30" height="30" viewBox="0 0 30 30" fill="none" xmlns="http://www.w3.org/2000/svg">
<g clip-path="url(#clip0_280_3262)">
<path d="M20.294 1.76367C19.0637 1.76367 18.0268 2.60742 17.7313 3.7466L7.79794 7.05772H2.64703C1.18746 7.05778 0 8.24524 0 9.70481V14.9989C0 16.4584 1.18746 17.6459 2.64703 17.6459H2.68183L3.58693 26.109C3.71132 27.2674 5.13491 28.5786 6.81848 28.1551C8.21002 27.8075 9.06866 26.41 8.76157 25.0171L8.56944 22.9371C8.58789 22.9383 8.60623 22.9399 8.62493 22.9399H9.70574C11.1653 22.9399 12.3528 21.7525 12.3528 20.2929V19.1642L17.7313 20.957C18.0267 22.0963 19.0636 22.9399 20.2939 22.9399C21.7535 22.9399 22.9409 21.7525 22.9409 20.2929V4.41076C22.941 2.95113 21.7535 1.76367 20.294 1.76367ZM6.38946 26.4435C5.93847 26.5569 5.47388 26.2983 5.33401 25.8501L4.45663 17.6459H6.30866C7.05889 25.7698 7.00839 25.2757 7.03247 25.3725C7.15042 25.845 6.8626 26.3253 6.38946 26.4435ZM7.05878 15.8812C6.27626 15.8812 3.20947 15.8812 2.64703 15.8812C2.16052 15.8812 1.76466 15.4854 1.76466 14.9989V9.70481C1.76466 9.21831 2.16046 8.82245 2.64703 8.82245H7.05878V15.8812ZM10.5882 20.293C10.5882 20.7795 10.1924 21.1753 9.7058 21.1753H8.62498C8.55045 21.1753 8.47844 21.1856 8.40936 21.203L8.08985 17.7433L10.5882 18.576V20.293ZM17.6469 19.0688L8.8235 16.1276V8.57606L17.6469 5.6349V19.0688ZM21.1763 20.293C21.1763 20.7795 20.7805 21.1753 20.294 21.1753C19.8075 21.1753 19.4116 20.7795 19.4116 20.293V4.41076C19.4116 3.92425 19.8074 3.5284 20.294 3.5284C20.7805 3.5284 21.1763 3.9242 21.1763 4.41076V20.293Z" fill="#0053B5"/>
<path d="M29.1178 10.5869H25.5884C25.1012 10.5869 24.7061 10.982 24.7061 11.4693C24.7061 11.9565 25.1011 12.3516 25.5884 12.3516H29.1178C29.6051 12.3516 30.0002 11.9566 30.0002 11.4693C30.0002 10.982 29.6051 10.5869 29.1178 10.5869Z" fill="#0053B5"/>
<path d="M29.9062 5.78091C29.6883 5.34503 29.1582 5.16837 28.7224 5.38634L25.193 7.151C24.7571 7.36897 24.5805 7.89895 24.7984 8.33483C25.0165 8.77094 25.5466 8.94731 25.9823 8.7294L29.5117 6.96473C29.9475 6.74677 30.1241 6.21679 29.9062 5.78091Z" fill="#0053B5"/>
<path d="M29.5116 15.9742L25.9822 14.2096C25.5464 13.9916 25.0164 14.1683 24.7984 14.6042C24.5805 15.04 24.7572 15.57 25.193 15.788L28.7224 17.5526C29.1583 17.7707 29.6883 17.5938 29.9062 17.1581C30.1241 16.7222 29.9475 16.1922 29.5116 15.9742Z" fill="#0053B5"/>
</g>
<defs>
<clipPath id="clip0_280_3262">
<rect width="30" height="30" fill="white"/>
</clipPath>
</defs>
</svg>
